<svg width="323" height="99" viewBox="0 0 323 99" fill="none" xmlns="http://www.w3.org/2000/svg">
<g filter="url(#filter0_di_2060_186)">
<circle cx="280.207" cy="37.2074" r="16.2074" fill="url(#paint0_linear_2060_186)"/>
</g>
<rect x="276.684" y="28.0466" width="7.04668" height="18.3214" rx="1.057" fill="white"/>
<rect x="289.368" y="33.6838" width="7.04668" height="18.3214" rx="1.057" transform="rotate(90 289.368 33.6838)" fill="white"/>
<path d="M112.243 75.2844L102.648 43.3019H109.953L114.145 57.1754C114.707 59.0771 115.225 60.9787 115.744 64.1338C116.263 60.9787 116.781 59.1635 117.343 57.1754L121.276 43.3019H129.099L132.859 57.1754C133.378 59.1203 133.896 61.0652 134.458 64.1338C135.106 60.8923 135.582 59.1203 136.144 57.2618L140.422 43.3019H147.554L137.786 75.2844H130.957L125.123 54.2797L119.115 75.2844H112.243ZM153.788 75.8463C149.207 75.8463 146.355 73.1667 146.355 68.9311C146.355 64.9549 149.164 62.4914 154.35 62.1024L160.401 61.627V61.2813C160.401 59.1635 159.104 58.0398 156.727 58.0398C153.918 58.0398 152.405 59.1203 152.405 61.0652H146.873C146.873 56.1813 150.893 52.9831 157.073 52.9831C163.34 52.9831 166.884 56.4839 166.884 62.6643V75.2844H161.006L160.574 72.4319C159.882 74.42 157.03 75.8463 153.788 75.8463ZM156.122 70.9192C158.672 70.9192 160.444 69.6659 160.444 67.2024V66.0354L157.073 66.338C154.177 66.5973 153.14 67.2456 153.14 68.6286C153.14 70.1845 154.091 70.9192 156.122 70.9192ZM186.525 53.6746V59.9415H184.407C180.604 59.9415 178.314 61.627 178.314 65.9058V75.2844H171.658V53.7178H177.925L178.27 56.9161C179.178 54.7983 181.08 53.3721 183.975 53.3721C184.753 53.3721 185.618 53.4585 186.525 53.6746ZM195.573 75.8463C190.992 75.8463 188.139 73.1667 188.139 68.9311C188.139 64.9549 190.948 62.4914 196.135 62.1024L202.186 61.627V61.2813C202.186 59.1635 200.889 58.0398 198.512 58.0398C195.703 58.0398 194.19 59.1203 194.19 61.0652H188.658C188.658 56.1813 192.677 52.9831 198.858 52.9831C205.125 52.9831 208.669 56.4839 208.669 62.6643V75.2844H202.791L202.358 72.4319C201.667 74.42 198.814 75.8463 195.573 75.8463ZM197.907 70.9192C200.457 70.9192 202.229 69.6659 202.229 67.2024V66.0354L198.858 66.338C195.962 66.5973 194.925 67.2456 194.925 68.6286C194.925 70.1845 195.876 70.9192 197.907 70.9192ZM211.886 68.4557H218.196C218.283 69.9684 219.407 70.876 221.438 70.876C223.512 70.876 224.463 70.1413 224.463 69.0176C224.463 68.3693 224.118 67.6778 222.518 67.332L218.542 66.4676C214.566 65.6032 212.621 63.8744 212.621 60.0711C212.621 55.5763 216.468 52.9831 221.654 52.9831C226.667 52.9831 230.168 55.922 230.168 60.2872H223.858C223.858 58.8177 222.951 57.8237 221.351 57.8237C219.839 57.8237 218.888 58.6016 218.888 59.7686C218.888 60.7626 219.709 61.3245 221.222 61.6702L225.241 62.5346C228.785 63.3126 230.73 64.9549 230.73 68.4125C230.73 73.037 226.797 75.8463 221.179 75.8463C215.474 75.8463 211.886 72.8209 211.886 68.4557ZM242.031 43.3019V75.2844H235.029V43.3019H242.031ZM254.539 75.2844H247.883V53.6746H254.15L254.582 55.922C255.922 54.0636 258.385 52.9831 261.195 52.9831C266.338 52.9831 269.32 56.2678 269.32 61.9296V75.2844H262.664V63.5287C262.664 60.8058 261.151 59.0338 258.861 59.0338C256.224 59.0338 254.539 60.7626 254.539 63.4422V75.2844Z" fill="url(#paint1_linear_2060_186)"/>
<path fill-rule="evenodd" clip-rule="evenodd" d="M93.5378 94.6843C93.5378 96.7468 91.6363 98.0922 90.0129 97.178L63.1957 82.0765V13.0512C63.1957 9.92812 66.0971 7.91174 68.5352 9.34029L92.2127 23.2137C93.0264 23.6904 93.5378 24.6453 93.5378 25.6875V94.6843Z" fill="url(#paint2_linear_2060_186)"/>
<path fill-rule="evenodd" clip-rule="evenodd" d="M63.2065 82.0706L32.1687 23.7966L63.2065 41.6415V82.0706Z" fill="url(#paint3_linear_2060_186)"/>
<path fill-rule="evenodd" clip-rule="evenodd" d="M32.8426 97.7006C32.1671 98.9222 30.7832 99.352 29.6566 98.6901L0.742199 81.7039L32.2025 23.8287L52.5549 62.0595L32.8426 97.7006Z" fill="url(#paint4_linear_2060_186)"/>
<path fill-rule="evenodd" clip-rule="evenodd" d="M32.1943 23.8306L0.746998 81.7144L0.555632 16.8364C0.540367 11.6324 5.36418 8.25338 9.43474 10.6167L32.1943 23.8306Z" fill="url(#paint5_linear_2060_186)"/>
<defs>
<filter id="filter0_di_2060_186" x="238.338" y="0.740797" width="83.738" height="83.7381" filterUnits="userSpaceOnUse" color-interpolation-filters="sRGB">
<feFlood flood-opacity="0" result="BackgroundImageFix"/>
<feColorMatrix in="SourceAlpha" type="matrix" values="0 0 0 0 0 0 0 0 0 0 0 0 0 0 0 0 0 0 127 0" result="hardAlpha"/>
<feOffset dy="5.40245"/>
<feGaussianBlur stdDeviation="12.8308"/>
<feComposite in2="hardAlpha" operator="out"/>
<feColorMatrix type="matrix" values="0 0 0 0 0.0862745 0 0 0 0 0.470588 0 0 0 0 0.94902 0 0 0 0.2 0"/>
<feBlend mode="normal" in2="BackgroundImageFix" result="effect1_dropShadow_2060_186"/>
<feBlend mode="normal" in="SourceGraphic" in2="effect1_dropShadow_2060_186" result="shape"/>
<feColorMatrix in="SourceAlpha" type="matrix" values="0 0 0 0 0 0 0 0 0 0 0 0 0 0 0 0 0 0 127 0" result="hardAlpha"/>
<feOffset dy="5.40245"/>
<feGaussianBlur stdDeviation="2.70123"/>
<feComposite in2="hardAlpha" operator="arithmetic" k2="-1" k3="1"/>
<feColorMatrix type="matrix" values="0 0 0 0 0 0 0 0 0 0 0 0 0 0 0 0 0 0 0.12 0"/>
<feBlend mode="normal" in2="shape" result="effect2_innerShadow_2060_186"/>
</filter>
<linearGradient id="paint0_linear_2060_186" x1="261.477" y1="8.28834" x2="335.148" y2="16.2146" gradientUnits="userSpaceOnUse">
<stop stop-color="#3A8EF6"/>
<stop offset="1" stop-color="#6F3AFA"/>
</linearGradient>
<linearGradient id="paint1_linear_2060_186" x1="88.7666" y1="6.53932" x2="444.259" y2="118.643" gradientUnits="userSpaceOnUse">
<stop stop-color="#3A8EF6"/>
<stop offset="1" stop-color="#6F3AFA"/>
</linearGradient>
<linearGradient id="paint2_linear_2060_186" x1="95.8998" y1="132.214" x2="26.2353" y2="129.647" gradientUnits="userSpaceOnUse">
<stop stop-color="#3A8EF6"/>
<stop offset="1" stop-color="#6F3AFA"/>
</linearGradient>
<linearGradient id="paint3_linear_2060_186" x1="55.4471" y1="88.5454" x2="-6.08867" y2="41.5972" gradientUnits="userSpaceOnUse">
<stop stop-color="#3D93FF"/>
<stop offset="1" stop-color="#65A8FB"/>
</linearGradient>
<linearGradient id="paint4_linear_2060_186" x1="56.5883" y1="128.479" x2="-61.882" y2="119.694" gradientUnits="userSpaceOnUse">
<stop stop-color="#3A8EF6"/>
<stop offset="1" stop-color="#6F3AFA"/>
</linearGradient>
<linearGradient id="paint5_linear_2060_186" x1="24.2847" y1="89.6994" x2="-46.7176" y2="44.9234" gradientUnits="userSpaceOnUse">
<stop stop-color="#65A8FB"/>
<stop offset="1" stop-color="#65A8FB"/>
</linearGradient>
</defs>
</svg>
