<svg width="339" height="88" viewBox="0 0 339 88" fill="none" xmlns="http://www.w3.org/2000/svg">
<g filter="url(#filter0_di_2076_177)">
<circle cx="296.538" cy="37.2074" r="16.2074" fill="white"/>
</g>
<rect x="293.014" y="28.0469" width="7.04668" height="18.3214" rx="1.057" fill="#1678F2"/>
<rect x="305.698" y="33.6841" width="7.04668" height="18.3214" rx="1.057" transform="rotate(90 305.698 33.6841)" fill="#1678F2"/>
<path d="M128.573 75.2847L118.979 43.3021H126.283L130.475 57.1756C131.037 59.0773 131.556 60.979 132.074 64.134C132.593 60.979 133.111 59.1637 133.673 57.1756L137.606 43.3021H145.429L149.189 57.1756C149.708 59.1205 150.226 61.0654 150.788 64.134C151.437 60.8925 151.912 59.1205 152.474 57.2621L156.753 43.3021H163.884L154.116 75.2847H147.287L141.453 54.2799L135.445 75.2847H128.573ZM170.119 75.8465C165.537 75.8465 162.685 73.1669 162.685 68.9314C162.685 64.9552 165.494 62.4917 170.68 62.1027L176.731 61.6273V61.2815C176.731 59.1637 175.435 58.04 173.058 58.04C170.248 58.04 168.736 59.1205 168.736 61.0654H163.203C163.203 56.1816 167.223 52.9833 173.403 52.9833C179.67 52.9833 183.214 56.4841 183.214 62.6645V75.2847H177.336L176.904 72.4322C176.213 74.4203 173.36 75.8465 170.119 75.8465ZM172.452 70.9195C175.002 70.9195 176.774 69.6661 176.774 67.2026V66.0357L173.403 66.3382C170.508 66.5975 169.47 67.2458 169.47 68.6288C169.47 70.1848 170.421 70.9195 172.452 70.9195ZM202.855 53.6749V59.9417H200.738C196.934 59.9417 194.644 61.6273 194.644 65.906V75.2847H187.988V53.7181H194.255L194.6 56.9163C195.508 54.7986 197.41 53.3723 200.305 53.3723C201.083 53.3723 201.948 53.4588 202.855 53.6749ZM211.903 75.8465C207.322 75.8465 204.469 73.1669 204.469 68.9314C204.469 64.9552 207.279 62.4917 212.465 62.1027L218.516 61.6273V61.2815C218.516 59.1637 217.219 58.04 214.842 58.04C212.033 58.04 210.52 59.1205 210.52 61.0654H204.988C204.988 56.1816 209.007 52.9833 215.188 52.9833C221.455 52.9833 224.999 56.4841 224.999 62.6645V75.2847H219.121L218.689 72.4322C217.997 74.4203 215.145 75.8465 211.903 75.8465ZM214.237 70.9195C216.787 70.9195 218.559 69.6661 218.559 67.2026V66.0357L215.188 66.3382C212.292 66.5975 211.255 67.2458 211.255 68.6288C211.255 70.1848 212.206 70.9195 214.237 70.9195ZM228.217 68.456H234.527C234.613 69.9687 235.737 70.8763 237.768 70.8763C239.843 70.8763 240.794 70.1415 240.794 69.0178C240.794 68.3695 240.448 67.678 238.849 67.3323L234.872 66.4679C230.896 65.6035 228.951 63.8747 228.951 60.0714C228.951 55.5765 232.798 52.9833 237.984 52.9833C242.998 52.9833 246.498 55.9223 246.498 60.2875H240.188C240.188 58.818 239.281 57.8239 237.682 57.8239C236.169 57.8239 235.218 58.6019 235.218 59.7688C235.218 60.7629 236.039 61.3247 237.552 61.6705L241.571 62.5349C245.115 63.3128 247.06 64.9552 247.06 68.4127C247.06 73.0372 243.127 75.8465 237.509 75.8465C231.804 75.8465 228.217 72.8211 228.217 68.456ZM258.361 43.3021V75.2847H251.359V43.3021H258.361ZM270.869 75.2847H264.213V53.6749H270.48L270.912 55.9223C272.252 54.0638 274.716 52.9833 277.525 52.9833C282.668 52.9833 285.65 56.268 285.65 61.9298V75.2847H278.994V63.5289C278.994 60.8061 277.482 59.0341 275.191 59.0341C272.555 59.0341 270.869 60.7629 270.869 63.4425V75.2847Z" fill="white"/>
<path fill-rule="evenodd" clip-rule="evenodd" d="M100.275 83.8044C100.275 85.4342 98.2243 86.4972 96.4736 85.7749L67.5531 73.8424V19.302C67.5531 16.8343 70.682 15.2411 73.3114 16.3698L98.8459 27.3319C99.7234 27.7085 100.275 28.4631 100.275 29.2866V83.8044Z" fill="url(#paint0_linear_2076_177)"/>
<path fill-rule="evenodd" clip-rule="evenodd" d="M67.5648 73.8374L34.0926 27.7922L67.5648 41.8924V73.8374Z" fill="white"/>
<path fill-rule="evenodd" clip-rule="evenodd" d="M34.8194 86.1876C34.0908 87.1528 32.5984 87.4925 31.3834 86.9695L0.201233 73.5478L34.129 27.8177L56.0777 58.0258L34.8194 86.1876Z" fill="url(#paint1_linear_2076_177)"/>
<path fill-rule="evenodd" clip-rule="evenodd" d="M34.1202 27.8192L0.206417 73.5562L4.19617e-05 22.2928C-0.0164223 18.1808 5.18572 15.5109 9.57555 17.3783L34.1202 27.8192Z" fill="url(#paint2_linear_2076_177)"/>
<defs>
<filter id="filter0_di_2076_177" x="254.669" y="0.740797" width="83.738" height="83.7379" filterUnits="userSpaceOnUse" color-interpolation-filters="sRGB">
<feFlood flood-opacity="0" result="BackgroundImageFix"/>
<feColorMatrix in="SourceAlpha" type="matrix" values="0 0 0 0 0 0 0 0 0 0 0 0 0 0 0 0 0 0 127 0" result="hardAlpha"/>
<feOffset dy="5.40245"/>
<feGaussianBlur stdDeviation="12.8308"/>
<feComposite in2="hardAlpha" operator="out"/>
<feColorMatrix type="matrix" values="0 0 0 0 0.0862745 0 0 0 0 0.470588 0 0 0 0 0.94902 0 0 0 0.2 0"/>
<feBlend mode="normal" in2="BackgroundImageFix" result="effect1_dropShadow_2076_177"/>
<feBlend mode="normal" in="SourceGraphic" in2="effect1_dropShadow_2076_177" result="shape"/>
<feColorMatrix in="SourceAlpha" type="matrix" values="0 0 0 0 0 0 0 0 0 0 0 0 0 0 0 0 0 0 127 0" result="hardAlpha"/>
<feOffset dy="5.40245"/>
<feGaussianBlur stdDeviation="2.70123"/>
<feComposite in2="hardAlpha" operator="arithmetic" k2="-1" k3="1"/>
<feColorMatrix type="matrix" values="0 0 0 0 0 0 0 0 0 0 0 0 0 0 0 0 0 0 0.12 0"/>
<feBlend mode="normal" in2="shape" result="effect2_innerShadow_2076_177"/>
</filter>
<linearGradient id="paint0_linear_2076_177" x1="92.0945" y1="93.7837" x2="21.2274" y2="46.3346" gradientUnits="userSpaceOnUse">
<stop stop-color="white" stop-opacity="0.5"/>
<stop offset="1" stop-color="#4461F2"/>
</linearGradient>
<linearGradient id="paint1_linear_2076_177" x1="42.1086" y1="93.814" x2="-20.1332" y2="9.94076" gradientUnits="userSpaceOnUse">
<stop stop-color="white" stop-opacity="0.5"/>
<stop offset="1" stop-color="#4461F2"/>
</linearGradient>
<linearGradient id="paint2_linear_2076_177" x1="27.44" y1="36" x2="1.99767" y2="15.1473" gradientUnits="userSpaceOnUse">
<stop stop-color="white"/>
<stop offset="1" stop-color="#F8F8F8"/>
</linearGradient>
</defs>
</svg>
